:SAMPLES-PER-SECOND 30
:FRAME-RANGE 1-3549
:FULLY-SPECIFIED
:DEGREES
555
root  -76.7629 37.3244 46.0771 0.449524 28.4305 -0.291016
RightUpLeg  -26.928 12.3814 -4.80422
RightLeg  22.1319 2.95593 1.10894
RightFoot  0.919035 -1.20259 11.2223
RightToes  1.218e-010 1.26228e-014 -6.01869e-014
Spine  -8.3208 1.19882 6.51565
Spine1  10.0012 1.0858 -1.41731
HEad  16.9873 61.2283 -3.76566
LeftShoulder1  -0.0303391 3.40362 -24.3166
LeftArm  16.805 5.16332 -54.5318
LeftForeArm  22.8012 -17.6447 -6.98539
LeftHand  -0.0443536 5.01864 7.78617
RightShoulder  0.96991 -0.532023 28.9027
RightArm  -37.2665 -16.9701 42.2236
RightForeArm  74.0501 -3.93832 -3.54338
RightHand  0.326018 -8.80495 -12.044
LeftUpLeg  6.76078 -2.85708 -5.95548
LeftLeg  31.4083 -7.91373 -4.83501
LeftFoot  -14.0508 0.130626 1.95574
LeftToes  -1.43952e-010 7.51141e-011 -1.22592e-011
556
root  -76.2974 37.3399 46.9998 0.0147705 31.5999 -1.59583
RightUpLeg  -26.2012 10.0263 -3.24571
RightLeg  24.652 2.07602 0.818824
RightFoot  -0.605651 -0.836072 8.83686
RightToes  1.218e-010 1.26228e-014 -6.01869e-014
Spine  -7.58421 1.29924 8.05495
Spine1  9.8902 1.10408 -0.47719
HEad  15.9988 64.192 -3.78901
LeftShoulder1  0.145615 2.81172 -23.541
LeftArm  0.48863 5.5896 -55.1939
LeftForeArm  36.1993 -6.04574 -11.6853
LeftHand  -0.026382 5.30835 7.1354
RightShoulder  0.947327 -0.580735 28.6865
RightArm  -35.1026 -14.8969 42.2254
RightForeArm  71.3803 -4.31776 -1.97595
RightHand  0.422466 -8.92749 -14.6339
LeftUpLeg  2.25222 -1.21021 -2.36194
LeftLeg  41.117 -10.3635 -9.18381
LeftFoot  -7.97038 0.173484 -4.2706
LeftToes  -1.43952e-010 7.51141e-011 -1.22592e-011
557
root  -75.8547 37.4262 47.8047 -0.332458 34.9884 -2.71594
RightUpLeg  -25.0112 9.27592 -2.38216
RightLeg  25.8159 -0.280721 -0.378205
RightFoot  -2.46063 -0.651742 8.16261
RightToes  1.218e-010 1.26228e-014 -6.01869e-014
Spine  -6.84725 1.35192 9.91241
Spine1  9.72561 1.34015 -0.442572
HEad  13.3123 65.5414 -5.00894
LeftShoulder1  0.247771 2.44981 -22.9325
LeftArm  -3.61071 5.71152 -55.3161
LeftForeArm  37.5824 2.39323 -11.9335
LeftHand  -0.00939718 5.68027 5.95833
RightShoulder  1.06035 -0.22293 28.3379
RightArm  -32.8353 -12.9138 42.4457
RightForeArm  68.2953 -4.71328 -0.37399
RightHand  0.478747 -8.72772 -17.263
LeftUpLeg  -3.47036 -1.05975 0.400843
LeftLeg  50.3511 -9.75117 -11.9556
LeftFoot  -0.560942 1.22635 -12.9192
LeftToes  -1.43952e-010 7.51141e-011 -1.22592e-011
558
root  -75.3768 37.5131 48.5585 -0.941956 37.8441 -3.40479
RightUpLeg  -23.3622 6.70375 -1.54219
RightLeg  26.857 -0.488695 -0.506274
RightFoot  -4.2152 -0.494936 7.47584
RightToes  1.218e-010 1.26228e-014 -6.01869e-014
Spine  -5.81763 1.75444 11.7413
Spine1  9.65451 2.07527 -0.896985
HEad  10.1427 65.5211 -7.17896
LeftShoulder1  0.301091 2.26854 -23.0082
LeftArm  -4.53037 5.84229 -54.4031
LeftForeArm  38.2133 7.6089 -11.8897
LeftHand  -0.00024164 6.07021 4.66682
RightShoulder  1.17383 0.173354 27.6867
RightArm  -29.9301 -10.7827 42.2748
RightForeArm  65.4584 -5.12288 1.40806
RightHand  0.492703 -8.34808 -19.7991
LeftUpLeg  -8.2631 -0.813356 1.94456
LeftLeg  57.1844 -7.63282 -12.055
LeftFoot  2.43631 1.7762 -14.7577
LeftToes  -1.43952e-010 7.51141e-011 -1.22592e-011
559
root  -74.862 37.7682 49.3284 -0.694153 40.1477 -2.8324
RightUpLeg  -21.0986 4.21282 -1.7735
RightLeg  26.4406 -0.410647 -0.459053
RightFoot  -5.45381 -0.383022 6.71745
RightToes  1.218e-010 1.26228e-014 -6.01869e-014
Spine  -5.032 2.33765 12.424
Spine1  9.2801 3.0029 -2.00415
HEad  7.94814 64.9319 -8.95674
LeftShoulder1  0.254416 2.42674 -22.9266
LeftArm  -4.18108 7.03311 -53.0234
LeftForeArm  38.8422 7.68503 -12.4627
LeftHand  0.00914116 6.69962 3.63558
RightShoulder  1.28339 0.605849 26.7454
RightArm  -27.4949 -8.38216 41.9211
RightForeArm  63.8311 -5.39455 2.66968
RightHand  0.465898 -8.02118 -20.9661
LeftUpLeg  -12.2358 0.284143 2.1577
LeftLeg  60.7367 -5.35476 -9.69895
LeftFoot  -0.804683 1.1247 -12.1109
LeftToes  -1.43952e-010 7.51141e-011 -1.22592e-011
560
root  -74.3499 38.0684 50.0315 -0.0217896 42.8169 -2.11072
RightUpLeg  -18.6862 2.49875 -2.32492
RightLeg  25.0125 -1.23541 -0.862735
RightFoot  -6.3029 -0.343541 6.82393
RightToes  1.218e-010 1.26228e-014 -6.01869e-014
Spine  -4.50713 2.77309 12.7621
Spine1  8.71849 3.63099 -2.91423
HEad  5.99728 64.1198 -10.9633
LeftShoulder1  0.199807 2.61373 -22.8694
LeftArm  -4.13048 8.90203 -51.5191
LeftForeArm  38.5474 7.71068 -12.5915
LeftHand  0.0145385 6.74487 3.95939
RightShoulder  1.34372 0.917433 25.7232
RightArm  -25.1557 -5.87752 41.055
RightForeArm  62.8598 -2.18751 4.23803
RightHand  0.439713 -7.86535 -21.0525
LeftUpLeg  -15.998 1.36778 1.96888
LeftLeg  60.9859 -3.49492 -6.23672
LeftFoot  -2.25229 0.805106 -9.94206
LeftToes  -1.43952e-010 7.51141e-011 -1.22592e-011
561
root  -73.8449 38.3361 50.6586 0.822388 45.6389 -1.36401
RightUpLeg  -16.3517 -0.507072 -2.87552
RightLeg  23.2715 -0.910979 -0.691347
RightFoot  -7.02671 -0.289289 6.40251
RightToes  1.218e-010 1.26228e-014 -6.01869e-014
Spine  -4.16562 3.09507 13.0304
Spine1  8.3865 4.06371 -3.66699
HEad  3.48822 63.031 -13.6124
LeftShoulder1  0.108699 2.92901 -22.9216
LeftArm  -3.81279 10.6888 -49.8814
LeftForeArm  36.5281 7.74432 -12.5612
LeftHand  0.00107581 6.21176 4.21955
RightShoulder  1.37412 1.14305 24.7553
RightArm  -22.5067 -3.19271 39.7391
RightForeArm  61.9565 1.95331 5.96512
RightHand  0.446458 -7.88958 -21.1514
LeftUpLeg  -19.3188 3.04224 1.55316
LeftLeg  58.6234 -2.06319 -3.11398
LeftFoot  -2.79509 0.560976 -7.27801
LeftToes  -1.43952e-010 7.51141e-011 -1.22592e-011
562
root  -73.3506 38.5886 51.2356 1.76691 48.5542 -0.623535
RightUpLeg  -13.9333 -3.53298 -3.35111
RightLeg  21.1083 -0.830568 -0.72799
RightFoot  -7.47715 -0.268982 6.45763
RightToes  1.218e-010 1.26228e-014 -6.01869e-014
Spine  -4.03423 3.40142 12.8545
Spine1  8.16007 4.29925 -3.82189
HEad  1.89022 61.8191 -15.5289
LeftShoulder1  0.0847284 3.01332 -23.0989
LeftArm  -3.87199 12.1833 -48.6138
LeftForeArm  34.5897 7.74369 -12.3375
LeftHand  -0.00843962 5.88614 4.35993
RightShoulder  1.39654 1.36716 23.706
RightArm  -19.908 -0.686944 38.1664
RightForeArm  60.9916 5.40073 7.4866
RightHand  0.475435 -7.97379 -21.7073
LeftUpLeg  -21.9718 5.12355 0.888441
LeftLeg  54.0285 -0.406367 -0.119447
LeftFoot  -3.72684 0.393547 -5.57593
LeftToes  -1.43952e-010 7.51141e-011 -1.22592e-011
563
root  -72.8478 38.7803 51.7742 2.76971 51.5818 0.185974
RightUpLeg  -11.6728 -6.43272 -4.03186
RightLeg  19.3144 -1.06556 -0.519018
RightFoot  -8.02036 -0.235908 6.2487
RightToes  1.218e-010 1.26228e-014 -6.01869e-014
Spine  -3.8234 3.55827 12.5574
Spine1  7.74756 4.3898 -3.98686
HEad  0.599455 60.4946 -16.8038
LeftShoulder1  0.0754452 3.04558 -23.1527
LeftArm  -3.68251 13.0957 -47.5864
LeftForeArm  33.2514 7.64837 -12.2751
LeftHand  -0.0141354 5.70228 4.44665
RightShoulder  1.47153 1.73768 22.9697
RightArm  -16.8594 2.06452 36.1544
RightForeArm  58.7799 7.27698 8.66186
RightHand  0.472344 -7.94279 -21.8202
LeftUpLeg  -23.9576 7.42079 -0.0877865
LeftLeg  47.9245 1.25071 1.91015
LeftFoot  -4.31433 0.279919 -4.13674
LeftToes  -1.43952e-010 7.51141e-011 -1.22592e-011
564
root  -72.3246 38.9056 52.2668 3.74982 54.6897 0.856506
RightUpLeg  -9.52757 -7.74082 -4.64132
RightLeg  17.6965 -2.87092 -0.653622
RightFoot  -8.64495 -0.213508 6.56549
RightToes  1.218e-010 1.26228e-014 -6.01869e-014
Spine  -4.02941 3.63109 12.32
Spine1  7.74675 4.37503 -4.13223
HEad  -0.281459 59.3645 -17.4379
LeftShoulder1  0.0693216 3.06612 -23.0997
LeftArm  -3.71154 13.4176 -46.9459
LeftForeArm  33.6488 7.15339 -12.1995
LeftHand  -0.0252132 5.37562 4.31438
RightShoulder  1.51721 2.02729 22.2052
RightArm  -15.1716 4.27578 35.3321
RightForeArm  58.1079 8.05118 9.00201
RightHand  0.483207 -7.99423 -21.8668
LeftUpLeg  -25.4091 9.57369 -1.11966
LeftLeg  40.875 2.73476 2.91432
LeftFoot  -4.14857 0.242899 -3.46815
LeftToes  -1.43952e-010 7.51141e-011 -1.22592e-011
565
root  -71.7606 39.0162 52.7291 4.97211 58.012 1.70361
RightUpLeg  -7.41405 -7.60473 -5.06385
RightLeg  16.0859 -6.33365 -1.38626
RightFoot  -9.08315 -0.210498 7.53306
RightToes  1.218e-010 1.26228e-014 -6.01869e-014
Spine  -4.72504 3.64877 11.7377
Spine1  7.97633 4.22928 -4.01209
HEad  -0.165737 57.9996 -16.9346
LeftShoulder1  0.0886477 2.99849 -22.9574
LeftArm  -3.59863 13.111 -46.8376
LeftForeArm  33.979 7.29975 -12.2245
LeftHand  -0.0261465 5.45732 4.37636
RightShoulder  1.54068 2.16908 21.8814
RightArm  -14.909 6.33966 34.6563
RightForeArm  59.1733 7.22993 9.28059
RightHand  0.424401 -7.71281 -21.615
LeftUpLeg  -26.2118 10.5129 -2.236
LeftLeg  32.9377 5.23993 3.99401
LeftFoot  -2.41192 0.20168 -2.39741
LeftToes  -1.43952e-010 7.51141e-011 -1.22592e-011
